<svg xmlns="http://www.w3.org/2000/svg" xmlns:xlink="http://www.w3.org/1999/xlink" width="110.303" height="126.287" viewBox="0 0 110.303 126.287"><defs><radialGradient id="a" cx="0.5" cy="0" r="1" gradientUnits="objectBoundingBox"><stop offset="0.249" stop-color="#fb4141"/><stop offset="0.498" stop-color="#ec2323"/><stop offset="0.75" stop-color="#cf1414"/><stop offset="0.905" stop-color="#ec2323"/><stop offset="0.93" stop-color="#fafafb"/></radialGradient><linearGradient id="b" x1="0.925" y1="0.184" x2="0.2" y2="0.722" gradientUnits="objectBoundingBox"><stop offset="0" stop-color="#ed1e13"/><stop offset="0.326" stop-color="#eb1c11"/><stop offset="1" stop-color="#d21000"/></linearGradient></defs><path d="M52.977,125.842A81.839,81.839,0,0,1,32.089,118.6a66.49,66.49,0,0,1-16.809-12.085C5.284,96.51,0,84.1,0,70.612V25.776A19.954,19.954,0,0,1,13.732,6.8,140.008,140.008,0,0,1,34.47,1.7a126.386,126.386,0,0,1,41.364,0A139.969,139.969,0,0,1,96.571,6.8,19.954,19.954,0,0,1,110.3,25.776V70.612c0,13.483-5.284,25.9-15.279,35.9A66.491,66.491,0,0,1,78.215,118.6a81.827,81.827,0,0,1-20.888,7.244l-2.174.445ZM17.1,17.152a9.05,9.05,0,0,0-6.241,8.624V70.612c0,24.518,22.244,40.049,44.29,44.564,22.046-4.515,44.29-20.047,44.29-44.564V25.776A9.05,9.05,0,0,0,93.2,17.152a122.335,122.335,0,0,0-38.048-6.267A122.336,122.336,0,0,0,17.1,17.152ZM52.6,107.814A53.846,53.846,0,0,1,38.7,102.983a44.249,44.249,0,0,1-11.239-8.138A34.173,34.173,0,0,1,17.2,70.4V37.177A16.372,16.372,0,0,1,28.49,21.6a84.872,84.872,0,0,1,26.273-4.287A84.872,84.872,0,0,1,81.035,21.6,16.372,16.372,0,0,1,92.326,37.177V70.4A34.173,34.173,0,0,1,82.061,94.845a44.249,44.249,0,0,1-11.239,8.138,53.858,53.858,0,0,1-13.894,4.831l-2.165.441ZM31.845,31.957a5.476,5.476,0,0,0-3.785,5.22V70.4c0,14.716,13.411,24.037,26.7,26.746,13.291-2.709,26.7-12.03,26.7-26.746V37.177a5.476,5.476,0,0,0-3.785-5.22A74.067,74.067,0,0,0,54.762,28.2,74.063,74.063,0,0,0,31.845,31.957Z" fill="url(#a)"/><path d="M0,36.77A14.48,14.48,0,0,1,21.964,24.34L70.476,0V16.167L28.958,37.215A14.482,14.482,0,0,1,0,36.77Z" transform="translate(39.827 24.998)" fill="url(#b)"/></svg>