<svg xmlns="http://www.w3.org/2000/svg" width="17.925" height="21.51" viewBox="0 0 17.925 21.51">
  <path id="Icon_material-android" data-name="Icon material-android" d="M6.585,16.133a.9.9,0,0,0,.9.9h.9v3.137a1.344,1.344,0,0,0,2.689,0V17.029h1.793v3.137a1.344,1.344,0,0,0,2.689,0V17.029h.9a.9.9,0,0,0,.9-.9V7.17H6.585ZM4.344,7.17A1.343,1.343,0,0,0,3,8.514v6.274a1.344,1.344,0,1,0,2.689,0V8.514A1.343,1.343,0,0,0,4.344,7.17Zm15.236,0a1.343,1.343,0,0,0-1.344,1.344v6.274a1.344,1.344,0,1,0,2.689,0V8.514A1.343,1.343,0,0,0,19.581,7.17ZM15.126,1.936,16.291.771a.444.444,0,0,0,0-.636.444.444,0,0,0-.636,0L14.329,1.461A5.234,5.234,0,0,0,11.962.9a5.309,5.309,0,0,0-2.384.565L8.243.134a.444.444,0,0,0-.636,0,.444.444,0,0,0,0,.636L8.781,1.945a5.363,5.363,0,0,0-2.2,4.329H17.34A5.347,5.347,0,0,0,15.126,1.936ZM10.17,4.481h-.9v-.9h.9Zm4.481,0h-.9v-.9h.9Z" transform="translate(-3)" fill="#17262f"/>
</svg>
