<svg xmlns="http://www.w3.org/2000/svg" width="17.46" height="21.51" viewBox="0 0 17.46 21.51">
  <path id="Icon_simple-apple" data-name="Icon simple-apple" d="M7.7,21.094a4.817,4.817,0,0,1-1.114-1.03,13.816,13.816,0,0,1-.953-1.3A12.6,12.6,0,0,1,4.036,15.5a12.247,12.247,0,0,1-.666-3.894,7.237,7.237,0,0,1,.9-3.664A5.178,5.178,0,0,1,6.149,5.993,5.016,5.016,0,0,1,8.693,5.24a4.2,4.2,0,0,1,1.012.134c.26.072.573.188.958.331.493.188.761.3.851.331a2.1,2.1,0,0,0,.717.152,2.144,2.144,0,0,0,.578-.116c.13-.045.376-.125.726-.278.346-.125.62-.233.838-.314a7.475,7.475,0,0,1,.941-.233A4.439,4.439,0,0,1,16.341,5.2a6.1,6.1,0,0,1,1.738.376,4.688,4.688,0,0,1,2.2,1.756,4.409,4.409,0,0,0-.649.493,5.484,5.484,0,0,0-1.1,1.348,4.568,4.568,0,0,0-.577,2.257A4.623,4.623,0,0,0,18.7,14a4.775,4.775,0,0,0,1.374,1.376,3.521,3.521,0,0,0,.752.4c-.107.336-.226.663-.363.985a12.709,12.709,0,0,1-1.12,2.069c-.387.564-.692.985-.923,1.263a4.994,4.994,0,0,1-1.057.983,2.353,2.353,0,0,1-1.3.391,2.884,2.884,0,0,1-.926-.114c-.26-.085-.516-.181-.767-.289a6.216,6.216,0,0,0-.811-.3,4.048,4.048,0,0,0-1.043-.132,4.18,4.18,0,0,0-1.039.13,6.456,6.456,0,0,0-.812.291c-.376.157-.623.26-.766.3a4,4,0,0,1-.887.157,2.463,2.463,0,0,1-1.331-.4ZM13.837,4.559a3.336,3.336,0,0,1-1.767.391,3.592,3.592,0,0,1,.242-1.825,4.932,4.932,0,0,1,.9-1.5A4.845,4.845,0,0,1,14.667.491,4.154,4.154,0,0,1,16.36,0a4.072,4.072,0,0,1-.224,1.854,5.319,5.319,0,0,1-.9,1.576A4.519,4.519,0,0,1,13.82,4.558Z" transform="translate(-3.37 0.002)" fill="#fff"/>
</svg>
