<svg xmlns="http://www.w3.org/2000/svg" width="36" height="33.816" viewBox="0 0 36 33.816">
  <g id="noun_Security_750585" transform="translate(0 -0.092)">
    <path id="Shape" d="M26.8,33.817a1.351,1.351,0,0,1-1.36-1.344l.028-4.891a1.347,1.347,0,0,1,1.044-1.289v-.945l0-.068a4.086,4.086,0,0,1,1.273-2.969,4.226,4.226,0,0,1,2.944-1.186h.1a4.242,4.242,0,0,1,4.073,4.231v.909A1.349,1.349,0,0,1,36,27.582l-.02,4.894a1.352,1.352,0,0,1-1.356,1.34Zm-25.6,0a1.207,1.207,0,0,1-.85-.348A1.181,1.181,0,0,1,0,32.627c0-6.044,7.708-8.456,11.02-9.212a.088.088,0,0,0,.068-.091V22.047A9.936,9.936,0,0,1,9.4,18.726a6.678,6.678,0,0,1-1.456-2.91c-.348-1.175-.676-2.862.252-4.08l.04-.051c-.06-.36-.1-.708-.132-1.064-.42-2.751-.1-4.808.964-6.1a3.525,3.525,0,0,1,2.3-1.281A5.175,5.175,0,0,1,16.94.082C19.272.56,24.12.014,24.168.014a.246.246,0,0,1,.172.051.226.226,0,0,1,.085.158,2.359,2.359,0,0,1-.688,1.72C27.612,4.5,27.052,9.538,26.6,11.673l.04.051c.932,1.218.592,2.906.257,4.092a6.59,6.59,0,0,1-1.456,2.91,9.9,9.9,0,0,1-1.684,3.3v1.269a.091.091,0,0,0,.068.091c.336.075.735.17,1.136.284a5.838,5.838,0,0,0-.221,1.581v.024A3.06,3.06,0,0,0,23.7,27.582l-.015,4.886A3.036,3.036,0,0,0,24,33.817Z" transform="translate(0 0.092)" fill="#ec2323"/>
  </g>
</svg>
