<svg xmlns="http://www.w3.org/2000/svg" width="40.5" height="36" viewBox="0 0 40.5 36">
  <path id="Icon_awesome-id-card-alt" data-name="Icon awesome-id-card-alt" d="M37.125,4.5H27v6.75H13.5V4.5H3.375A3.376,3.376,0,0,0,0,7.875v24.75A3.376,3.376,0,0,0,3.375,36h33.75A3.376,3.376,0,0,0,40.5,32.625V7.875A3.376,3.376,0,0,0,37.125,4.5ZM20.25,15.75a4.5,4.5,0,1,1-4.5,4.5A4.5,4.5,0,0,1,20.25,15.75ZM26.81,31.5H13.69a1.11,1.11,0,0,1-1.1-1.392A4.5,4.5,0,0,1,16.875,27h.577a7.242,7.242,0,0,0,5.6,0h.577a4.506,4.506,0,0,1,4.282,3.108,1.11,1.11,0,0,1-1.1,1.392ZM24.75,2.25A2.248,2.248,0,0,0,22.5,0H18a2.248,2.248,0,0,0-2.25,2.25V9h9Z" fill="#ec2323"/>
</svg>
