<svg xmlns="http://www.w3.org/2000/svg" width="35.358" height="31.339" viewBox="0 0 35.358 31.339">
  <g id="noun_Security_228818" transform="translate(-0.092 -0.189)">
    <path id="Shape" d="M12.83,28.47a2.87,2.87,0,0,1,1.6-2.568V21.145H3.767a3.776,3.776,0,0,1-.038-7.552H21.222v1.171a3.252,3.252,0,0,0,3.208,3.247h7.535a3.748,3.748,0,0,1-3.693,3.134H16.9V25.9A2.854,2.854,0,1,1,12.83,28.47Zm7.2,1.246a4.773,4.773,0,0,0,.186-1.246,4.342,4.342,0,0,0-.186-1.247h8.989a1.246,1.246,0,0,1,0,2.492Zm-17.6,0a1.246,1.246,0,0,1,0-2.492H11.3a4.374,4.374,0,0,0-.186,1.247,4.811,4.811,0,0,0,.186,1.246ZM24.467,16.009A1.265,1.265,0,0,1,23.2,14.726V7.778a1.265,1.265,0,0,1,1.268-1.283h.112V4.833A4.737,4.737,0,1,1,34.052,4.8V6.457h.038A1.265,1.265,0,0,1,35.358,7.74v6.986a1.265,1.265,0,0,1-1.268,1.283Zm-20.7-4.871A3.776,3.776,0,0,1,3.73,3.587H22.714A7.021,7.021,0,0,0,22.6,4.833V5.1A3.282,3.282,0,0,0,21.222,7.74v3.4Z" transform="translate(0.092 0.189)" fill="#ec2323"/>
  </g>
</svg>
