<svg xmlns="http://www.w3.org/2000/svg" width="36" height="28" viewBox="0 0 36 28">
  <path id="Shape" d="M25.412,28H10.589a1.069,1.069,0,0,1-1.059-1.076V18.308a1.07,1.07,0,0,1,1.059-1.077H25.412a1.07,1.07,0,0,1,1.059,1.077v8.616A1.069,1.069,0,0,1,25.412,28Zm-3.49-8.531a.527.527,0,0,0-.336.121l-.819.666a.547.547,0,0,0-.088.758l1.26,1.6-1.26,1.6a.54.54,0,0,0,.088.758l.819.667a.539.539,0,0,0,.337.121.522.522,0,0,0,.412-.2l1.786-2.272a1.085,1.085,0,0,0,0-1.346l-1.786-2.272a.523.523,0,0,0-.413-.2Zm-7.844,0h0a.522.522,0,0,0-.412.2l-1.786,2.272a1.085,1.085,0,0,0,0,1.346l1.786,2.272a.523.523,0,0,0,.413.2.529.529,0,0,0,.336-.121l.819-.667a.547.547,0,0,0,.088-.758l-1.26-1.6,1.26-1.6a.541.541,0,0,0-.088-.758l-.819-.666a.536.536,0,0,0-.337-.121Zm3.829.34a.524.524,0,0,0-.518.431l-.852,4.332a.534.534,0,0,0,.42.633l1.029.21a.546.546,0,0,0,.108.011.525.525,0,0,0,.519-.43l.852-4.333a.534.534,0,0,0-.42-.633l-1.029-.209A.544.544,0,0,0,17.906,19.808ZM7.942,21.54h-.53A7.484,7.484,0,0,1,0,14,7.612,7.612,0,0,1,1.821,9.05,7.369,7.369,0,0,1,6.339,6.54,9.543,9.543,0,0,1,15.353,0a9.4,9.4,0,0,1,5.084,1.494,9.638,9.638,0,0,1,3.488,3.959,6.8,6.8,0,0,1,5.282,1.485,7.1,7.1,0,0,1,2.411,3.912,5.393,5.393,0,0,1-.911,10.69H28.058V18.308a2.673,2.673,0,0,0-2.647-2.693H10.589a2.673,2.673,0,0,0-2.647,2.693v3.231Z" transform="translate(0 0)" fill="#ec2323"/>
</svg>
