<svg xmlns="http://www.w3.org/2000/svg" width="45" height="15" viewBox="0 0 45 15">
  <path id="Combined_Shape" data-name="Combined Shape" d="M40,12.5A2.5,2.5,0,1,1,42.5,15,2.5,2.5,0,0,1,40,12.5Zm-10,0A2.5,2.5,0,1,1,32.5,15,2.5,2.5,0,0,1,30,12.5Zm-10,0A2.5,2.5,0,1,1,22.5,15,2.5,2.5,0,0,1,20,12.5Zm-10,0A2.5,2.5,0,1,1,12.5,15,2.5,2.5,0,0,1,10,12.5Zm-10,0A2.5,2.5,0,1,1,2.5,15,2.5,2.5,0,0,1,0,12.5Zm40-10A2.5,2.5,0,1,1,42.5,5,2.5,2.5,0,0,1,40,2.5Zm-10,0A2.5,2.5,0,1,1,32.5,5,2.5,2.5,0,0,1,30,2.5Zm-10,0A2.5,2.5,0,1,1,22.5,5,2.5,2.5,0,0,1,20,2.5Zm-10,0A2.5,2.5,0,1,1,12.5,5,2.5,2.5,0,0,1,10,2.5ZM0,2.5A2.5,2.5,0,1,1,2.5,5,2.5,2.5,0,0,1,0,2.5Z" fill="#ec2323"/>
</svg>
