<svg xmlns="http://www.w3.org/2000/svg" width="34.956" height="35.982" viewBox="0 0 34.956 35.982">
  <g id="headphones" transform="translate(-0.013)">
    <path id="Path" d="M30.809,15.463a1.488,1.488,0,0,0,.039-.414V13.512a13.477,13.477,0,0,0-3.881-9.575,13.412,13.412,0,0,0-18.985,0,13.472,13.472,0,0,0-3.876,9.575V15.05a1.488,1.488,0,0,0,.039.414C1.842,15.647,0,18.119,0,21.133s1.843,5.509,4.162,5.673A3.351,3.351,0,0,0,10.2,24.777V17.488a3.342,3.342,0,0,0-3.146-3.376v-.6a10.422,10.422,0,1,1,20.843,0v.6a3.343,3.343,0,0,0-3.146,3.376v7.288a3.386,3.386,0,0,0,1.608,2.884,10.288,10.288,0,0,1-4.469,3.7,2.716,2.716,0,0,0-2.031-.914H16.078a2.74,2.74,0,0,0-2.729,2.745v.048a2.74,2.74,0,0,0,2.729,2.745h3.784a2.732,2.732,0,0,0,2.489-1.622,13.358,13.358,0,0,0,7.361-6.612,3.316,3.316,0,0,0,1.087-.942c2.319-.164,4.157-2.646,4.157-5.673S33.115,15.647,30.809,15.463Z" transform="translate(0.013)" fill="#ec2323"/>
  </g>
</svg>
