<svg xmlns="http://www.w3.org/2000/svg" width="25" height="20" viewBox="0 0 25 20">
  <path id="Icon_awesome-user-shield" data-name="Icon awesome-user-shield" d="M24.309,10.59l-4.5-1.758a1.21,1.21,0,0,0-.867,0l-4.5,1.758a1.056,1.056,0,0,0-.691.973,8.88,8.88,0,0,0,5.191,8.355,1.212,1.212,0,0,0,.867,0A8.851,8.851,0,0,0,25,11.563,1.056,1.056,0,0,0,24.309,10.59Zm-4.934,7.473V10.676l3.73,1.457A6.987,6.987,0,0,1,19.375,18.063ZM8.75,10a5,5,0,1,0-5-5A5,5,0,0,0,8.75,10Zm3.75,1.563a2.218,2.218,0,0,1,.043-.281c-.1,0-.191-.031-.293-.031H11.6a6.8,6.8,0,0,1-5.7,0H5.25A5.251,5.251,0,0,0,0,16.5v1.625A1.875,1.875,0,0,0,1.875,20h13.75a1.922,1.922,0,0,0,.75-.156A10.5,10.5,0,0,1,12.5,11.563Z" fill="#929292"/>
</svg>
