<svg id="Phantom_Identity" data-name="Phantom Identity" xmlns="http://www.w3.org/2000/svg" width="36" height="36" viewBox="0 0 36 36">
  <circle id="Oval_Copy_93" data-name="Oval Copy 93" cx="18" cy="18" r="18" fill="#ec2323" opacity="0.1"/>
  <path id="Icon_awesome-id-card" data-name="Icon awesome-id-card" d="M21.478,2.25H1.953A1.953,1.953,0,0,0,0,4.2v.651H23.431V4.2A1.953,1.953,0,0,0,21.478,2.25ZM0,18.521a1.953,1.953,0,0,0,1.953,1.953H21.478a1.953,1.953,0,0,0,1.953-1.953V6.155H0ZM14.319,9.084a.326.326,0,0,1,.325-.325H20.5a.326.326,0,0,1,.325.325v.651a.326.326,0,0,1-.325.325H14.644a.326.326,0,0,1-.325-.325Zm0,2.6a.326.326,0,0,1,.325-.325H20.5a.326.326,0,0,1,.325.325v.651a.326.326,0,0,1-.325.325H14.644a.326.326,0,0,1-.325-.325Zm0,2.6a.326.326,0,0,1,.325-.325H20.5a.326.326,0,0,1,.325.325v.651a.326.326,0,0,1-.325.325H14.644a.326.326,0,0,1-.325-.325ZM7.159,8.759a2.6,2.6,0,1,1-2.6,2.6A2.606,2.606,0,0,1,7.159,8.759ZM2.73,17.065a2.607,2.607,0,0,1,2.477-1.8H5.54a4.19,4.19,0,0,0,3.238,0h.334a2.607,2.607,0,0,1,2.477,1.8.641.641,0,0,1-.635.805H3.364A.642.642,0,0,1,2.73,17.065Z" transform="translate(6.535 6.388)" fill="#ec2323"/>
</svg>
