<svg id="Group_5373" data-name="Group 5373" xmlns="http://www.w3.org/2000/svg" width="131.04" height="131.04" viewBox="0 0 131.04 131.04">
  <circle id="Oval_Copy_104" data-name="Oval Copy 104" cx="65.52" cy="65.52" r="65.52" fill="rgba(227,74,91,0.13)"/>
  <path id="Icon_awesome-cc-jcb" data-name="Icon awesome-cc-jcb" d="M61.8,32.658V28.031c5.9,0,5.514.029,5.514.029a2.274,2.274,0,0,1,1.9,2.292,2.233,2.233,0,0,1-1.9,2.263C67.146,32.672,66.845,32.658,61.8,32.658Zm6.13,2.893c-.4-.1-.473-.072-6.13-.072v5.013c5.672,0,5.729.029,6.13-.072a2.415,2.415,0,0,0,1.934-2.435A2.45,2.45,0,0,0,67.934,35.551ZM82.5,9.125V59.542a6.877,6.877,0,0,1-6.875,6.875H6.875A6.877,6.877,0,0,1,0,59.542V9.125A6.877,6.877,0,0,1,6.875,2.25h68.75A6.877,6.877,0,0,1,82.5,9.125ZM26.068,25.21H17.9c0,9.611,1.533,15.712-5.128,15.712A18.584,18.584,0,0,1,4.583,38.8v4.01A43.292,43.292,0,0,0,14.323,44C28.345,44,26.068,37.169,26.068,25.21Zm25.566.645C42.553,23.563,28,23.72,28,34.348c0,11.043,15.5,10.542,23.633,8.479V38.773c-6.818,3.538-15.4,3.151-15.4-4.44s8.565-7.964,15.4-4.469ZM77.917,38.7c0-2.65-2.363-4.368-5.443-4.583V34c2.793-.387,4.34-2.22,4.34-4.326,0-2.721-2.249-4.3-5.3-4.44,0,0,.9-.043-17.23-.043V43.457H71.858c3.48.014,6.059-1.848,6.059-4.755Z" transform="translate(24 30.75)" fill="#17262f"/>
</svg>
