<svg xmlns="http://www.w3.org/2000/svg" width="15.056" height="21.9" viewBox="0 0 15.056 21.9">
  <path id="Icon_awesome-lightbulb" data-name="Icon awesome-lightbulb" d="M4.109,19.433a1.369,1.369,0,0,0,.229.757l.731,1.1a1.368,1.368,0,0,0,1.139.611H8.848a1.368,1.368,0,0,0,1.139-.611l.731-1.1a1.368,1.368,0,0,0,.229-.757l0-1.64H4.107ZM0,7.528A7.486,7.486,0,0,0,1.863,12.48,12.292,12.292,0,0,1,4.1,16.392c0,.011,0,.022,0,.033h6.854c0-.011,0-.022,0-.033a12.292,12.292,0,0,1,2.233-3.912A7.526,7.526,0,1,0,0,7.528ZM7.528,4.106A3.426,3.426,0,0,0,4.106,7.528a.684.684,0,1,1-1.369,0,4.8,4.8,0,0,1,4.79-4.79.684.684,0,1,1,0,1.369Z" fill="#ec2323"/>
</svg>
