<svg id="Group_5372" data-name="Group 5372" xmlns="http://www.w3.org/2000/svg" width="131.04" height="131.04" viewBox="0 0 131.04 131.04">
  <circle id="Oval_Copy_103" data-name="Oval Copy 103" cx="65.52" cy="65.52" r="65.52" fill="rgba(227,74,91,0.13)"/>
  <path id="Icon_awesome-cc-mastercard" data-name="Icon awesome-cc-mastercard" d="M69.165,56.361a1.606,1.606,0,1,1-1.6-1.676A1.6,1.6,0,0,1,69.165,56.361ZM24.65,54.685a1.68,1.68,0,1,0,1.561,1.676A1.584,1.584,0,0,0,24.65,54.685Zm16.829-.043a1.328,1.328,0,0,0-1.361,1.246h2.736A1.317,1.317,0,0,0,41.479,54.642Zm15.44.043a1.677,1.677,0,1,0,1.6,1.676A1.584,1.584,0,0,0,56.919,54.685Zm15.168,3.738c0,.043.043.072.043.158,0,.043-.043.072-.043.158a.5.5,0,0,0-.072.115.185.185,0,0,1-.158.072c-.043.043-.072.043-.158.043a.284.284,0,0,1-.158-.043c-.043,0-.072-.043-.115-.072s-.072-.072-.072-.115a.26.26,0,0,1-.043-.158c0-.072,0-.115.043-.158a.269.269,0,0,1,.072-.158.5.5,0,0,1,.115-.072.261.261,0,0,1,.158-.043c.072,0,.115,0,.158.043.072.043.115.043.158.072S72.044,58.352,72.087,58.423Zm-.315.2c.072,0,.072-.043.115-.043a.174.174,0,0,0,0-.229c-.043,0-.072-.043-.158-.043H71.5v.5h.115v-.2h.043l.158.2h.115l-.158-.186ZM82.5,9.2V59.612a6.877,6.877,0,0,1-6.875,6.875H6.875A6.877,6.877,0,0,1,0,59.612V9.2A6.877,6.877,0,0,1,6.875,2.32h68.75A6.877,6.877,0,0,1,82.5,9.2ZM9.167,29.19A19.828,19.828,0,0,0,39.961,45.719a21.36,21.36,0,0,1,0-33.014A19.828,19.828,0,0,0,9.167,29.19ZM41.25,44.773a19.831,19.831,0,0,0,0-31.152A19.831,19.831,0,0,0,41.25,44.773ZM20.868,55.7A2.007,2.007,0,0,0,18.763,53.6a2.048,2.048,0,0,0-1.833.931,1.9,1.9,0,0,0-1.747-.931,1.819,1.819,0,0,0-1.518.773v-.63H12.49V59h1.174c0-2.707-.358-4.326,1.289-4.326,1.461,0,1.174,1.461,1.174,4.326h1.132c0-2.621-.358-4.326,1.289-4.326,1.461,0,1.174,1.432,1.174,4.326H20.9V55.7ZM27.3,53.74H26.168v.63a2.064,2.064,0,0,0-1.676-.773,2.769,2.769,0,0,0,0,5.529,1.986,1.986,0,0,0,1.676-.773v.659H27.3Zm5.8,3.667c0-2.148-3.28-1.174-3.28-2.177,0-.816,1.7-.687,2.65-.158l.473-.931c-1.346-.874-4.326-.859-4.326,1.174S31.9,56.5,31.9,57.464c0,.9-1.934.831-2.965.115l-.5.9C30.035,59.569,33.1,59.34,33.1,57.406Zm5.07,1.332-.315-.974c-.544.3-1.747.63-1.747-.587V54.8h1.876V53.74H36.108v-1.6H34.934v1.6H33.845v1.046h1.089v2.392c0,2.521,2.478,2.063,3.237,1.561Zm1.9-1.919h3.939c0-2.32-1.06-3.237-2.492-3.237a2.579,2.579,0,0,0-2.607,2.764c0,2.936,3.237,3.423,4.841,2.034l-.544-.859c-1.117.917-2.807.831-3.137-.7ZM48.54,53.74a1.681,1.681,0,0,0-2.177.63v-.63H45.189V59h1.174V56.031a1.2,1.2,0,0,1,1.833-1.2l.344-1.089Zm1.518,2.621c0-1.633,1.661-2.163,2.965-1.2l.544-.931a2.846,2.846,0,0,0-4.684,2.148c0,2.836,3.208,3.409,4.684,2.148l-.544-.931C51.706,58.523,50.059,57.965,50.059,56.361Zm9.553-2.621H58.438v.63c-1.189-1.576-4.283-.687-4.283,1.991,0,2.75,3.208,3.538,4.283,1.991v.659h1.174V53.74Zm4.827,0a1.721,1.721,0,0,0-2.177.63v-.63H61.13V59h1.132V56.031a1.2,1.2,0,0,1,1.833-1.2l.344-1.089Zm5.772-2.134H69.079V54.37c-1.174-1.561-4.283-.73-4.283,1.991,0,2.779,3.223,3.523,4.283,1.991v.659h1.132ZM71.3,40.849v.659h.115v-.659h.272v-.115h-.659v.115H71.3Zm.945,17.732a.437.437,0,0,0-.043-.229c-.043-.043-.072-.115-.115-.158s-.115-.072-.158-.115c-.072,0-.158-.043-.229-.043a1.522,1.522,0,0,1-.2.043.748.748,0,0,0-.158.115.224.224,0,0,0-.115.158.437.437,0,0,0-.043.229.416.416,0,0,0,.043.2.224.224,0,0,0,.115.158.5.5,0,0,0,.158.115.389.389,0,0,0,.2.043.437.437,0,0,0,.229-.043c.043-.043.115-.072.158-.115s.072-.115.115-.158A.416.416,0,0,0,72.245,58.581ZM72.7,40.72h-.2l-.229.5-.229-.5h-.2v.773h.115v-.587l.229.5h.158l.2-.5v.587H72.7Zm.63-11.53a19.828,19.828,0,0,0-30.794-16.5,21.36,21.36,0,0,1,0,33.014A19.828,19.828,0,0,0,73.333,29.19Z" transform="translate(24 30.68)" fill="#17262f"/>
</svg>
