<svg id="Password_Protection" data-name="Password Protection" xmlns="http://www.w3.org/2000/svg" width="36" height="36" viewBox="0 0 36 36">
  <circle id="Oval_Copy_94" data-name="Oval Copy 94" cx="18" cy="18" r="18" fill="#ec2323" opacity="0.1"/>
  <g id="shield" transform="translate(10 8)">
    <path id="Shape" d="M8.5,19.961a1.409,1.409,0,0,1-.281-.028,1.352,1.352,0,0,1-.194-.053,12.623,12.623,0,0,1-4.72-2.791A10.049,10.049,0,0,1,.895,13.333,21.619,21.619,0,0,1,.02,5.443V5.4c.008-.179.014-.376.018-.62A2.115,2.115,0,0,1,2.031,2.708,8.215,8.215,0,0,0,7.619.353L7.632.34a1.278,1.278,0,0,1,1.736,0l.014.013A8.206,8.206,0,0,0,14.97,2.707,2.116,2.116,0,0,1,16.961,4.78c0,.244.01.442.018.62v.022A21.65,21.65,0,0,1,16.1,13.33a10.074,10.074,0,0,1-2.412,3.758A12.627,12.627,0,0,1,8.975,19.88a1.527,1.527,0,0,1-.193.053A1.422,1.422,0,0,1,8.5,19.961ZM5.258,8.714a1.006,1.006,0,0,0-.713.294,1,1,0,0,0,0,1.417l2.643,2.615a1.01,1.01,0,0,0,1.426,0l3.84-4.662a1,1,0,0,0,0-1.417,1.012,1.012,0,0,0-1.426,0L7.9,10.914,5.972,9.007A1.006,1.006,0,0,0,5.258,8.714Z" transform="translate(0 0.039)" fill="#ec2323"/>
  </g>
</svg>
