<svg id="Group_5371" data-name="Group 5371" xmlns="http://www.w3.org/2000/svg" width="131.04" height="131.04" viewBox="0 0 131.04 131.04">
  <circle id="Oval_Copy_102" data-name="Oval Copy 102" cx="65.52" cy="65.52" r="65.52" fill="rgba(227,74,91,0.13)"/>
  <path id="Icon_awesome-cc-paypal" data-name="Icon awesome-cc-paypal" d="M26.684,34.648a3.073,3.073,0,0,1-3.151,3.079,2.069,2.069,0,0,1-2.292-2.148,3.106,3.106,0,0,1,3.108-3.151A2.151,2.151,0,0,1,26.684,34.648ZM11.53,27.7h-.673a.449.449,0,0,0-.458.387l-.616,3.824,1.174-.043c1.576,0,2.793-.215,3.079-2.034.329-1.919-.888-2.134-2.507-2.134Zm40.677,0h-.645a.422.422,0,0,0-.458.387l-.6,3.824,1.146-.043c1.862,0,3.151-.43,3.151-2.578-.014-1.518-1.375-1.59-2.592-1.59ZM82.5,9.125V59.542a6.877,6.877,0,0,1-6.875,6.875H6.875A6.877,6.877,0,0,1,0,59.542V9.125A6.877,6.877,0,0,1,6.875,2.25h68.75A6.877,6.877,0,0,1,82.5,9.125ZM18.376,28.518c0-3.008-2.32-4.01-4.97-4.01H7.677a.757.757,0,0,0-.745.673L4.583,39.8a.493.493,0,0,0,.458.573H7.763a.914.914,0,0,0,.788-.816l.645-3.81c.143-1.031,1.891-.673,2.578-.673,4.1,0,6.6-2.435,6.6-6.56Zm12.06,1.26H27.715c-.544,0-.573.788-.6,1.174a3.657,3.657,0,0,0-3.395-1.432,6.391,6.391,0,0,0-6.188,6.474,4.275,4.275,0,0,0,4.54,4.612,5.578,5.578,0,0,0,3.8-1.7,3.828,3.828,0,0,0-.143.888c0,.329.143.573.458.573h2.464c.387,0,.716-.415.788-.816l1.461-9.21A.487.487,0,0,0,30.436,29.779Zm5.8,14.022,9.124-13.263a.294.294,0,0,0,.072-.243.511.511,0,0,0-.458-.5h-2.75a.81.81,0,0,0-.645.358l-3.8,5.586-1.576-5.371a.869.869,0,0,0-.788-.573H32.742a.511.511,0,0,0-.458.5c0,.172,2.793,8.135,3.036,8.895-.387.544-2.936,4.1-2.936,4.526a.462.462,0,0,0,.458.458h2.75a.843.843,0,0,0,.645-.372ZM59.053,28.518c0-3.008-2.32-4.01-4.97-4.01H48.4a.789.789,0,0,0-.788.673L45.289,39.79a.511.511,0,0,0,.458.573h2.936a.614.614,0,0,0,.573-.458l.645-4.154c.143-1.031,1.891-.673,2.578-.673C56.547,35.078,59.053,32.643,59.053,28.518Zm12.06,1.26H68.392c-.544,0-.573.788-.616,1.174-.788-1.217-2.005-1.432-3.395-1.432a6.391,6.391,0,0,0-6.187,6.474,4.275,4.275,0,0,0,4.54,4.612,5.415,5.415,0,0,0,3.8-1.7,6.364,6.364,0,0,0-.143.888c0,.329.143.573.458.573h2.478c.387,0,.716-.415.788-.816l1.461-9.21a.487.487,0,0,0-.458-.559Zm6.8-4.77a.481.481,0,0,0-.458-.5h-2.65a.475.475,0,0,0-.458.387l-2.32,14.9-.043.072a.507.507,0,0,0,.5.5h2.363a.887.887,0,0,0,.745-.816l2.32-14.495v-.043ZM65.026,32.428a3.1,3.1,0,0,0-3.108,3.151,2.1,2.1,0,0,0,2.32,2.148,3.054,3.054,0,0,0,3.108-3.079,2.132,2.132,0,0,0-2.32-2.22Z" transform="translate(24 30.75)" fill="#17262f"/>
</svg>
