<svg width="70" height="70" xmlns="http://www.w3.org/2000/svg">
 <defs>
  <filter filterUnits="userSpaceOnUse" height="155" width="155" y="0" x="0" id="Oval_Copy_106">
   <feGaussianBlur stdDeviation="15"/>
  </filter>
 </defs>
 <g>
  <title>background</title>
  <rect fill="none" id="canvas_background" height="72" width="72" y="-1" x="-1"/>
 </g>
 <g>
  <title>Layer 1</title>
  <g id="Prev">
   <g id="svg_1" filter="url(#Oval_Copy_106)" transform="matrix(1,0,0,1,-49.5,-41.5) ">
    <circle stroke-miterlimit="10" stroke="#e9e9e9" fill="none" r="32" cy="76" cx="84" id="Oval_Copy_106-2"/>
   </g>
   <path d="m36.605,48.153l-1.561,1.561a1.681,1.681 0 0 1 -2.384,0l-13.668,-13.661a1.681,1.681 0 0 1 0,-2.384l13.669,-13.673a1.681,1.681 0 0 1 2.384,0l1.56,1.557a1.689,1.689 0 0 1 -0.028,2.412l-8.477,8.076l20.213,0a1.683,1.683 0 0 1 1.687,1.687l0,2.25a1.683,1.683 0 0 1 -1.687,1.688l-20.213,0l8.473,8.072a1.677,1.677 0 0 1 0.032,2.415z" id="Icon_awesome-arrow-left"/>
  </g>
 </g>
</svg>