<svg width="131.04" height="131.04" xmlns="http://www.w3.org/2000/svg">

 <g>
  <title>background</title>
  <rect fill="none" id="canvas_background" height="602" width="802" y="-1" x="-1"/>
 </g>
 <g>
  <title>Layer 1</title>
  <g id="Master_card">
   <circle fill="rgba(227,74,91,0.13)" r="65.52" cy="65.52" cx="65.52" id="Oval_Copy_103"/>
   <path fill="#ec2323" d="m92.011,89.694a1.606,1.606 0 1 1 -1.6,-1.676a1.6,1.6 0 0 1 1.6,1.676zm-44.515,-1.676a1.68,1.68 0 1 0 1.561,1.676a1.584,1.584 0 0 0 -1.561,-1.676zm16.829,-0.043a1.328,1.328 0 0 0 -1.361,1.246l2.736,0a1.317,1.317 0 0 0 -1.375,-1.246zm15.44,0.043a1.677,1.677 0 1 0 1.6,1.676a1.584,1.584 0 0 0 -1.6,-1.676zm15.168,3.738c0,0.043 0.043,0.072 0.043,0.158c0,0.043 -0.043,0.072 -0.043,0.158a0.5,0.5 0 0 0 -0.072,0.115a0.185,0.185 0 0 1 -0.158,0.072c-0.043,0.043 -0.072,0.043 -0.158,0.043a0.284,0.284 0 0 1 -0.158,-0.043c-0.043,0 -0.072,-0.043 -0.115,-0.072s-0.072,-0.072 -0.072,-0.115a0.26,0.26 0 0 1 -0.043,-0.158c0,-0.072 0,-0.115 0.043,-0.158a0.269,0.269 0 0 1 0.072,-0.158a0.5,0.5 0 0 1 0.115,-0.072a0.261,0.261 0 0 1 0.158,-0.043c0.072,0 0.115,0 0.158,0.043c0.072,0.043 0.115,0.043 0.158,0.072s0.029,0.087 0.072,0.158zm-0.315,0.2c0.072,0 0.072,-0.043 0.115,-0.043a0.174,0.174 0 0 0 0,-0.229c-0.043,0 -0.072,-0.043 -0.158,-0.043l-0.229,0l0,0.5l0.115,0l0,-0.2l0.043,0l0.158,0.2l0.115,0l-0.158,-0.186l-0.001,0.001zm10.728,-49.423l0,50.412a6.877,6.877 0 0 1 -6.875,6.875l-68.75,0a6.877,6.877 0 0 1 -6.875,-6.875l0,-50.412a6.877,6.877 0 0 1 6.875,-6.88l68.75,0a6.877,6.877 0 0 1 6.875,6.88zm-73.333,19.99a19.828,19.828 0 0 0 30.794,16.529a21.36,21.36 0 0 1 0,-33.014a19.828,19.828 0 0 0 -30.794,16.485zm32.083,15.583a19.831,19.831 0 0 0 0,-31.152a19.831,19.831 0 0 0 0,31.152zm-20.382,10.927a2.007,2.007 0 0 0 -2.105,-2.1a2.048,2.048 0 0 0 -1.833,0.931a1.9,1.9 0 0 0 -1.747,-0.931a1.819,1.819 0 0 0 -1.518,0.773l0,-0.63l-1.175,0l0,5.257l1.174,0c0,-2.707 -0.358,-4.326 1.289,-4.326c1.461,0 1.174,1.461 1.174,4.326l1.132,0c0,-2.621 -0.358,-4.326 1.289,-4.326c1.461,0 1.174,1.432 1.174,4.326l1.178,0l0,-3.3l-0.032,0zm6.432,-1.96l-1.132,0l0,0.63a2.064,2.064 0 0 0 -1.676,-0.773a2.769,2.769 0 0 0 0,5.529a1.986,1.986 0 0 0 1.676,-0.773l0,0.659l1.132,0l0,-5.272zm5.8,3.667c0,-2.148 -3.28,-1.174 -3.28,-2.177c0,-0.816 1.7,-0.687 2.65,-0.158l0.473,-0.931c-1.346,-0.874 -4.326,-0.859 -4.326,1.174s3.283,1.185 3.283,2.149c0,0.9 -1.934,0.831 -2.965,0.115l-0.5,0.9c1.6,1.09 4.665,0.861 4.665,-1.073l0,0.001zm5.07,1.332l-0.315,-0.974c-0.544,0.3 -1.747,0.63 -1.747,-0.587l0,-2.378l1.876,0l0,-1.06l-1.876,0l0,-1.6l-1.174,0l0,1.6l-1.089,0l0,1.046l1.089,0l0,2.392c0,2.521 2.478,2.063 3.237,1.561l-0.001,0zm1.9,-1.919l3.939,0c0,-2.32 -1.06,-3.237 -2.492,-3.237a2.579,2.579 0 0 0 -2.607,2.764c0,2.936 3.237,3.423 4.841,2.034l-0.544,-0.859c-1.117,0.917 -2.807,0.831 -3.137,-0.7l0,-0.002zm8.47,-3.08a1.681,1.681 0 0 0 -2.177,0.63l0,-0.63l-1.174,0l0,5.26l1.174,0l0,-2.969a1.2,1.2 0 0 1 1.833,-1.2l0.344,-1.089l0,-0.002zm1.518,2.621c0,-1.633 1.661,-2.163 2.965,-1.2l0.544,-0.931a2.846,2.846 0 0 0 -4.684,2.148c0,2.836 3.208,3.409 4.684,2.148l-0.544,-0.931c-1.317,0.928 -2.964,0.37 -2.964,-1.234l-0.001,0zm9.553,-2.621l-1.173,0l0,0.63c-1.189,-1.576 -4.283,-0.687 -4.283,1.991c0,2.75 3.208,3.538 4.283,1.991l0,0.659l1.174,0l0,-5.271l-0.001,0zm4.827,0a1.721,1.721 0 0 0 -2.177,0.63l0,-0.63l-1.131,0l0,5.26l1.132,0l0,-2.969a1.2,1.2 0 0 1 1.833,-1.2l0.344,-1.089l-0.001,-0.002zm5.772,-2.134l-1.131,0l0,2.764c-1.174,-1.561 -4.283,-0.73 -4.283,1.991c0,2.779 3.223,3.523 4.283,1.991l0,0.659l1.132,0l-0.001,-7.405zm1.09,-10.757l0,0.659l0.115,0l0,-0.659l0.272,0l0,-0.115l-0.659,0l0,0.115l0.272,0zm0.945,17.732a0.437,0.437 0 0 0 -0.043,-0.229c-0.043,-0.043 -0.072,-0.115 -0.115,-0.158s-0.115,-0.072 -0.158,-0.115c-0.072,0 -0.158,-0.043 -0.229,-0.043a1.522,1.522 0 0 1 -0.2,0.043a0.748,0.748 0 0 0 -0.158,0.115a0.224,0.224 0 0 0 -0.115,0.158a0.437,0.437 0 0 0 -0.043,0.229a0.416,0.416 0 0 0 0.043,0.2a0.224,0.224 0 0 0 0.115,0.158a0.5,0.5 0 0 0 0.158,0.115a0.389,0.389 0 0 0 0.2,0.043a0.437,0.437 0 0 0 0.229,-0.043c0.043,-0.043 0.115,-0.072 0.158,-0.115s0.072,-0.115 0.115,-0.158a0.416,0.416 0 0 0 0.043,-0.2zm0.455,-17.861l-0.2,0l-0.229,0.5l-0.229,-0.5l-0.2,0l0,0.773l0.115,0l0,-0.587l0.229,0.5l0.158,0l0.2,-0.5l0,0.587l0.156,0l0,-0.773zm0.63,-11.53a19.828,19.828 0 0 0 -30.794,-16.5a21.36,21.36 0 0 1 0,33.014a19.828,19.828 0 0 0 30.797,-16.514l-0.003,0z" id="Icon_awesome-cc-mastercard"/>
  </g>
 </g>
</svg>