<svg width="131.04" height="131.04" xmlns="http://www.w3.org/2000/svg">

 <g>
  <title>background</title>
  <rect fill="none" id="canvas_background" height="602" width="802" y="-1" x="-1"/>
 </g>
 <g>
  <title>Layer 1</title>
  <circle fill="rgba(227,74,91,0.13)" r="65.52" cy="65.52" cx="65.52" id="Oval_Copy_102"/>
  <path fill="#ec2323" transform="rotate(0.3354312777519226 64.1660003662129,68.66749572753758) " d="m49.6,68.982a3.073,3.073 0 0 1 -3.151,3.079a2.069,2.069 0 0 1 -2.292,-2.148a3.106,3.106 0 0 1 3.108,-3.151a2.151,2.151 0 0 1 2.335,2.22zm-15.154,-6.948l-0.673,0a0.449,0.449 0 0 0 -0.458,0.387l-0.616,3.824l1.174,-0.043c1.576,0 2.793,-0.215 3.079,-2.034c0.329,-1.919 -0.888,-2.134 -2.507,-2.134l0.001,0zm40.677,0l-0.645,0a0.422,0.422 0 0 0 -0.458,0.387l-0.6,3.824l1.146,-0.043c1.862,0 3.151,-0.43 3.151,-2.578c-0.014,-1.518 -1.375,-1.59 -2.592,-1.59l-0.002,0zm30.293,-18.575l0,50.417a6.877,6.877 0 0 1 -6.875,6.875l-68.75,0a6.877,6.877 0 0 1 -6.875,-6.875l0,-50.417a6.877,6.877 0 0 1 6.875,-6.875l68.75,0a6.877,6.877 0 0 1 6.875,6.875zm-64.124,19.393c0,-3.008 -2.32,-4.01 -4.97,-4.01l-5.729,0a0.757,0.757 0 0 0 -0.745,0.673l-2.349,14.619a0.493,0.493 0 0 0 0.458,0.573l2.722,0a0.914,0.914 0 0 0 0.788,-0.816l0.645,-3.81c0.143,-1.031 1.891,-0.673 2.578,-0.673c4.1,0 6.6,-2.435 6.6,-6.56l0.002,0.004zm12.06,1.26l-2.721,0c-0.544,0 -0.573,0.788 -0.6,1.174a3.657,3.657 0 0 0 -3.395,-1.432a6.391,6.391 0 0 0 -6.188,6.474a4.275,4.275 0 0 0 4.54,4.612a5.578,5.578 0 0 0 3.8,-1.7a3.828,3.828 0 0 0 -0.143,0.888c0,0.329 0.143,0.573 0.458,0.573l2.464,0c0.387,0 0.716,-0.415 0.788,-0.816l1.461,-9.21a0.487,0.487 0 0 0 -0.464,-0.562l0,-0.001zm5.8,14.022l9.124,-13.263a0.294,0.294 0 0 0 0.072,-0.243a0.511,0.511 0 0 0 -0.458,-0.5l-2.75,0a0.81,0.81 0 0 0 -0.645,0.358l-3.8,5.586l-1.576,-5.371a0.869,0.869 0 0 0 -0.788,-0.573l-2.673,0a0.511,0.511 0 0 0 -0.458,0.5c0,0.172 2.793,8.135 3.036,8.895c-0.387,0.544 -2.936,4.1 -2.936,4.526a0.462,0.462 0 0 0 0.458,0.458l2.75,0a0.843,0.843 0 0 0 0.645,-0.372l-0.001,-0.001zm22.817,-15.282c0,-3.008 -2.32,-4.01 -4.97,-4.01l-5.683,0a0.789,0.789 0 0 0 -0.788,0.673l-2.323,14.609a0.511,0.511 0 0 0 0.458,0.573l2.936,0a0.614,0.614 0 0 0 0.573,-0.458l0.645,-4.154c0.143,-1.031 1.891,-0.673 2.578,-0.673c4.068,0 6.574,-2.435 6.574,-6.56zm12.06,1.26l-2.721,0c-0.544,0 -0.573,0.788 -0.616,1.174c-0.788,-1.217 -2.005,-1.432 -3.395,-1.432a6.391,6.391 0 0 0 -6.187,6.474a4.275,4.275 0 0 0 4.54,4.612a5.415,5.415 0 0 0 3.8,-1.7a6.364,6.364 0 0 0 -0.143,0.888c0,0.329 0.143,0.573 0.458,0.573l2.478,0c0.387,0 0.716,-0.415 0.788,-0.816l1.461,-9.21a0.487,0.487 0 0 0 -0.458,-0.559l-0.005,-0.004zm6.8,-4.77a0.481,0.481 0 0 0 -0.458,-0.5l-2.65,0a0.475,0.475 0 0 0 -0.458,0.387l-2.32,14.9l-0.043,0.072a0.507,0.507 0 0 0 0.5,0.5l2.363,0a0.887,0.887 0 0 0 0.745,-0.816l2.32,-14.495l0,-0.043l0.001,-0.005zm-12.887,7.42a3.1,3.1 0 0 0 -3.108,3.151a2.1,2.1 0 0 0 2.32,2.148a3.054,3.054 0 0 0 3.108,-3.079a2.132,2.132 0 0 0 -2.32,-2.22z" id="Icon_awesome-cc-paypal"/>
 </g>
</svg>