<svg width="131.04" height="131.04" xmlns="http://www.w3.org/2000/svg">

 <g>
  <title>background</title>
  <rect fill="none" id="canvas_background" height="602" width="802" y="-1" x="-1"/>
 </g>
 <g>
  <title>Layer 1</title>
  <g id="Stripe">
   <circle transform="rotate(-90 65.52000427246095,65.52000427246094) " fill="rgba(227,74,91,0.13)" r="65.52" cy="65.52" cx="65.52001" id="Oval_Copy_101"/>
   <path transform="rotate(0.29992613196372986 65.08351135253386,65.78997802734466) " fill="#ec2323" d="m94.35951,60.74848c-1.275,0 -2.678,0.96 -2.678,3.251l5.252,0c0,-2.292 -1.328,-3.251 -2.574,-3.251zm-16.815,0.372a3.05,3.05 0 0 0 -2.435,1l0.029,7.563a3.09,3.09 0 0 0 2.406,0.96c1.876,0 3.137,-2.048 3.137,-4.784c0,-2.662 -1.289,-4.753 -3.137,-4.739zm21.914,-27.414l-68.75,0a6.877,6.877 0 0 0 -6.875,6.875l0,50.417a6.877,6.877 0 0 0 6.875,6.875l68.75,0a6.877,6.877 0 0 0 6.875,-6.875l0,-50.417a6.877,6.877 0 0 0 -6.875,-6.875zm-58.125,35.678c0,3.667 -2.908,5.743 -7.147,5.772a14.076,14.076 0 0 1 -5.553,-1.16l0,-4.855a13.01,13.01 0 0 0 5.57,1.615c1.132,0 1.948,-0.3 1.948,-1.246c0,-2.435 -7.734,-1.518 -7.734,-7.147c0,-3.609 2.75,-5.758 6.875,-5.758a13.427,13.427 0 0 1 5.056,0.931l0,4.784a11.438,11.438 0 0 0 -5.056,-1.3c-1.074,0 -1.733,0.315 -1.733,1.1c0,2.292 7.777,1.2 7.777,7.262l-0.003,0.002zm9.854,-8.107l-3.864,0l0,7.233c0,2.993 3.223,2.063 3.867,1.8l0,4.146a7.827,7.827 0 0 1 -3.566,0.673a5.12,5.12 0 0 1 -5.285,-5.228l0.029,-16.314l4.97,-1.06l0,4.411l3.853,0l-0.004,4.339zm10.6,0.344a3.611,3.611 0 0 0 -3.882,1.06l0,12.089l-5.082,0l0,-17.832l4.4,0l0.315,1.5a3.461,3.461 0 0 1 4.24,-1.5l0.014,0l-0.005,4.683zm6.316,13.148l-5.111,0l0,-17.831l5.113,0l-0.002,17.831zm0,-20.467l-5.113,1.089l0,-4.135l5.113,-1.089l0,4.135zm10.613,20.84a5.733,5.733 0 0 1 -3.6,-1.289l-0.014,5.758l-5.085,1.074l0,-23.747l4.483,0l0.258,1.26a5.745,5.745 0 0 1 3.982,-1.59c3.566,0 6.932,3.223 6.932,9.138c0,6.46 -3.323,9.382 -6.961,9.4l0.005,-0.004zm22.976,-7.376l-9.959,0c0.229,2.378 1.977,3.079 3.953,3.079a10.738,10.738 0 0 0 5,-1.132l0,4.1a11.508,11.508 0 0 1 -5.643,1.318c-4.956,0 -8.422,-3.108 -8.422,-9.238c0,-5.185 2.936,-9.3 7.777,-9.3s7.348,4.111 7.348,9.324c0,0.5 -0.043,1.561 -0.057,1.848l0.003,0.001z" id="Icon_awesome-cc-stripe"/>
  </g>
 </g>
</svg>