<svg width="131.04" height="131.04" xmlns="http://www.w3.org/2000/svg">

 <g>
  <title>background</title>
  <rect fill="none" id="canvas_background" height="602" width="802" y="-1" x="-1"/>
 </g>
 <g>
  <title>Layer 1</title>
  <g transform="rotate(90 65.52001953125,65.51999664306642) " id="Group_5374">
   <g transform="rotate(-90 0,131.0399932861328) " id="VIsa">
    <circle fill="rgba(227,74,91,0.13)" r="65.52" cy="196.55999" cx="65.52" id="Oval"/>
   </g>
   <path fill="#ec2323" transform="rotate(-90 31.633003234863285,107.03999328613281) " d="m99.033,137.86599s1.09,5.334 1.333,6.452l-4.784,0c0.473,-1.276 2.294,-6.237 2.294,-6.237c-0.029,0.043 0.473,-1.3 0.76,-2.136l0.4,1.921l-0.003,0zm15.188,-21.694l0,50.468a6.884,6.884 0 0 1 -6.882,6.882l-68.824,0a6.884,6.884 0 0 1 -6.882,-6.882l0,-50.468a6.884,6.884 0 0 1 6.882,-6.882l68.824,0a6.884,6.884 0 0 1 6.882,6.882zm-60.722,36.018l9.062,-22.25l-6.094,0l-5.634,15.2l-0.617,-3.083l-2.008,-10.242c-0.33,-1.419 -1.348,-1.821 -2.61,-1.878l-9.276,0l-0.1,0.444a22.753,22.753 0 0 1 6.051,2.452l5.132,19.357l6.094,0zm13.535,0.029l3.613,-22.279l-5.764,0l-3.6,22.282l5.75,0l0.001,-0.003zm20.059,-7.284c0.029,-2.538 -1.52,-4.474 -4.832,-6.065c-2.022,-1.018 -3.255,-1.706 -3.255,-2.753c0.029,-0.946 1.047,-1.921 3.312,-1.921a9.88,9.88 0 0 1 4.288,0.844l0.516,0.244l0.789,-4.818a14.319,14.319 0 0 0 -5.162,-0.946c-5.692,0 -9.693,3.04 -9.721,7.37c-0.043,3.2 2.868,4.975 5.047,6.051c2.222,1.09 2.982,1.807 2.982,2.767c-0.029,1.491 -1.807,2.179 -3.456,2.179a11.485,11.485 0 0 1 -5.406,-1.19l-0.762,-0.357l-0.8,5a17.594,17.594 0 0 0 6.424,1.19c6.05,0.019 9.993,-2.978 10.036,-7.595zm20.246,7.284l-4.646,-22.279l-4.46,0a2.836,2.836 0 0 0 -3.011,1.85l-8.559,20.429l6.051,0s0.989,-2.753 1.2,-3.341l7.4,0c0.172,0.789 0.688,3.341 0.688,3.341l5.337,0z" id="Icon_awesome-cc-visa"/>
  </g>
 </g>
</svg>