<svg xmlns="http://www.w3.org/2000/svg" width="30.695" height="38" viewBox="0 0 30.695 38">
  <path id="Path" d="M26.733,28.795a8.746,8.746,0,0,1-1.858,2.148,18.9,18.9,0,0,1-8.686,3.784,1.62,1.62,0,0,1-.632,0A22.746,22.746,0,0,1,6.03,30.746C4.181,29.282,3.241,27.71,3.241,26.43V6.577a7.2,7.2,0,0,1,.647-.36A26.665,26.665,0,0,1,7.357,4.86a30.272,30.272,0,0,1,7.7-1.616,33.465,33.465,0,0,1,8.012,1.623,29.64,29.64,0,0,1,3.68,1.366,7.858,7.858,0,0,1,.706.372v14.8a.811.811,0,0,1-.81.811H9.834l5.678-11.352,4.365,8.45,4.194-.136L17.851,8.553l-.1-.1a3.24,3.24,0,0,0-4.584,0l-.2.2L4.753,25.461h21.89a4.053,4.053,0,0,0,4.052-4.054V6.021a2.249,2.249,0,0,0-1.089-1.873A8.649,8.649,0,0,0,28.131,3.3a32.616,32.616,0,0,0-4.106-1.532A35.773,35.773,0,0,0,15.055,0a32.7,32.7,0,0,0-8.7,1.775A29.653,29.653,0,0,0,2.44,3.316a8.144,8.144,0,0,0-1.412.86A2.27,2.27,0,0,0,0,6.021V26.43C0,31.39,5.929,36.083,14.914,37.9a4.859,4.859,0,0,0,1.9.007,22.059,22.059,0,0,0,10.175-4.5,11.78,11.78,0,0,0,3.207-4.611" fill="#fff"/>
</svg>
