<svg id="Free_download" data-name="Free download" xmlns="http://www.w3.org/2000/svg" width="36" height="36" viewBox="0 0 36 36">
  <circle id="Oval" cx="18" cy="18" r="18" fill="#ec2323" opacity="0.1"/>
  <path id="Icon_awesome-shield-alt" data-name="Icon awesome-shield-alt" d="M24.092,4.268,14.3.189a2.455,2.455,0,0,0-1.881,0L2.634,4.268A2.444,2.444,0,0,0,1.125,6.526c0,10.12,5.837,17.114,11.292,19.388a2.455,2.455,0,0,0,1.881,0c4.369-1.82,11.3-8.106,11.3-19.388A2.448,2.448,0,0,0,24.092,4.268ZM13.365,22.753,13.36,3.33l8.967,3.737c-.168,7.718-4.186,13.311-8.962,15.687Z" transform="translate(4.515 4.947)" fill="#ec2323"/>
</svg>
