<svg xmlns="http://www.w3.org/2000/svg" width="131.04" height="131.04" viewBox="0 0 131.04 131.04">
  <g id="Group_5370" data-name="Group 5370" transform="translate(-0.5)">
    <circle id="Oval_Copy_101" data-name="Oval Copy 101" cx="65.52" cy="65.52" r="65.52" transform="translate(0.5)" fill="rgba(227,74,91,0.13)"/>
    <path id="Icon_awesome-cc-stripe" data-name="Icon awesome-cc-stripe" d="M70.526,29.292c-1.275,0-2.678.96-2.678,3.251H73.1C73.1,30.251,71.772,29.292,70.526,29.292Zm-16.815.372a3.05,3.05,0,0,0-2.435,1l.029,7.563a3.09,3.09,0,0,0,2.406.96c1.876,0,3.137-2.048,3.137-4.784C56.848,31.741,55.559,29.65,53.711,29.664ZM75.625,2.25H6.875A6.877,6.877,0,0,0,0,9.125V59.542a6.877,6.877,0,0,0,6.875,6.875h68.75A6.877,6.877,0,0,0,82.5,59.542V9.125A6.877,6.877,0,0,0,75.625,2.25ZM17.5,37.928c0,3.667-2.908,5.743-7.147,5.772A14.076,14.076,0,0,1,4.8,42.54V37.685A13.01,13.01,0,0,0,10.37,39.3c1.132,0,1.948-.3,1.948-1.246,0-2.435-7.734-1.518-7.734-7.147,0-3.609,2.75-5.758,6.875-5.758a13.427,13.427,0,0,1,5.056.931v4.784a11.438,11.438,0,0,0-5.056-1.3c-1.074,0-1.733.315-1.733,1.1,0,2.292,7.777,1.2,7.777,7.262Zm9.854-8.107H23.49v7.233c0,2.993,3.223,2.063,3.867,1.8V43a7.827,7.827,0,0,1-3.566.673,5.12,5.12,0,0,1-5.285-5.228l.029-16.314,4.97-1.06v4.411h3.853Zm10.6.344a3.611,3.611,0,0,0-3.882,1.06V43.314H28.99V25.482h4.4l.315,1.5a3.461,3.461,0,0,1,4.24-1.5h.014Zm6.316,13.148H39.159V25.482h5.113Zm0-20.467-5.113,1.089V19.8l5.113-1.089Zm10.613,20.84a5.733,5.733,0,0,1-3.6-1.289l-.014,5.758-5.085,1.074V25.482h4.483l.258,1.26a5.745,5.745,0,0,1,3.982-1.59c3.566,0,6.932,3.223,6.932,9.138,0,6.46-3.323,9.382-6.961,9.4ZM77.859,36.31H67.9c.229,2.378,1.977,3.079,3.953,3.079a10.738,10.738,0,0,0,5-1.132v4.1a11.508,11.508,0,0,1-5.643,1.318c-4.956,0-8.422-3.108-8.422-9.238,0-5.185,2.936-9.3,7.777-9.3s7.348,4.111,7.348,9.324c0,.5-.043,1.561-.057,1.848Z" transform="translate(24.5 30.75)" fill="#17262f"/>
  </g>
</svg>
