<svg xmlns="http://www.w3.org/2000/svg" width="131.04" height="131.04" viewBox="0 0 131.04 131.04">
  <g id="Group_5369" data-name="Group 5369" transform="translate(-89.5 -30)">
    <g id="VIsa" transform="translate(89.5 30)">
      <circle id="Oval" cx="65.52" cy="65.52" r="65.52" transform="translate(0 0)" fill="rgba(227,74,91,0.13)"/>
    </g>
    <path id="Icon_awesome-cc-visa" data-name="Icon awesome-cc-visa" d="M67.4,30.826s1.09,5.334,1.333,6.452H63.949c.473-1.276,2.294-6.237,2.294-6.237-.029.043.473-1.3.76-2.136l.4,1.921ZM82.588,9.132V59.6a6.884,6.884,0,0,1-6.882,6.882H6.882A6.884,6.884,0,0,1,0,59.6V9.132A6.884,6.884,0,0,1,6.882,2.25H75.706A6.884,6.884,0,0,1,82.588,9.132ZM21.866,45.15,30.928,22.9H24.834L19.2,38.1l-.617-3.083L16.575,24.775c-.33-1.419-1.348-1.821-2.61-1.878H4.689l-.1.444a22.753,22.753,0,0,1,6.051,2.452L15.772,45.15Zm13.535.029L39.014,22.9H33.25l-3.6,22.282H35.4ZM55.46,37.895c.029-2.538-1.52-4.474-4.832-6.065-2.022-1.018-3.255-1.706-3.255-2.753.029-.946,1.047-1.921,3.312-1.921A9.88,9.88,0,0,1,54.973,28l.516.244.789-4.818a14.319,14.319,0,0,0-5.162-.946c-5.692,0-9.693,3.04-9.721,7.37-.043,3.2,2.868,4.975,5.047,6.051,2.222,1.09,2.982,1.807,2.982,2.767-.029,1.491-1.807,2.179-3.456,2.179a11.485,11.485,0,0,1-5.406-1.19L39.8,39.3l-.8,5a17.594,17.594,0,0,0,6.424,1.19C51.474,45.509,55.417,42.512,55.46,37.895Zm20.246,7.284L71.06,22.9H66.6a2.836,2.836,0,0,0-3.011,1.85L55.03,45.179h6.051s.989-2.753,1.2-3.341h7.4c.172.789.688,3.341.688,3.341Z" transform="translate(113.5 61.632)" fill="#17262f"/>
  </g>
</svg>
